
        <svg xmlns="http://www.w3.org/2000/svg" xmlns:xlink="http://www.w3.org/1999/xlink" version="1.1" width="3153.959544672836" 
        height="1249.2834329702725" viewBox="0 0 3153.959544672836 1249.2834329702725">
			
			<g transform="scale(7.697977233641798) translate(10, 10)">
				<defs id="SvgjsDefs1412"><linearGradient id="SvgjsLinearGradient1419"><stop id="SvgjsStop1420" stop-color="#51504f" offset="0"></stop><stop id="SvgjsStop1421" stop-color="#939598" offset="0.5"></stop><stop id="SvgjsStop1422" stop-color="#51504f" offset="1"></stop></linearGradient><linearGradient id="SvgjsLinearGradient1423"><stop id="SvgjsStop1424" stop-color="#51504f" offset="0"></stop><stop id="SvgjsStop1425" stop-color="#939598" offset="0.5"></stop><stop id="SvgjsStop1426" stop-color="#51504f" offset="1"></stop></linearGradient></defs><g id="SvgjsG1413" featureKey="symbolFeature-0" transform="matrix(1.4872842142377243,0,0,1.4872842142377243,11.764909166686522,16.363340329632898)" fill="#037ecc"><path xmlns="http://www.w3.org/2000/svg" d="M44.967,5.807c-21.777,0-39.43,17.653-39.43,39.43c0,21.777,17.653,39.43,39.43,39.43h39.43v-39.43  C84.396,23.459,66.743,5.807,44.967,5.807z M44.967,77.469c-17.801,0-32.232-14.432-32.232-32.232  c0-17.801,14.431-32.232,32.232-32.232c17.801,0,32.233,14.431,32.233,32.232C77.2,63.037,62.768,77.469,44.967,77.469z"></path><path xmlns="http://www.w3.org/2000/svg" d="M64.462,37.818L47.809,21.163l0,0c-0.186-0.184-0.388-0.349-0.606-0.494c-0.096-0.064-0.198-0.108-0.299-0.163  c-0.127-0.07-0.25-0.147-0.387-0.203c-0.123-0.052-0.254-0.081-0.383-0.119c-0.119-0.036-0.233-0.082-0.358-0.106  c-0.235-0.046-0.474-0.068-0.714-0.072C45.041,20.006,45.022,20,45,20c-0.025,0.001-0.05,0.007-0.075,0.008  c-0.236,0.005-0.47,0.025-0.7,0.07c-0.129,0.025-0.249,0.073-0.374,0.111c-0.123,0.037-0.249,0.065-0.368,0.114  c-0.144,0.058-0.273,0.14-0.407,0.214c-0.093,0.051-0.188,0.09-0.277,0.15c-0.22,0.146-0.425,0.312-0.61,0.499L25.539,37.818  c-1.551,1.549-1.551,4.063,0,5.615c1.551,1.549,4.064,1.549,5.615,0l9.875-9.877l0,33.626c0,2.193,1.777,3.971,3.971,3.971  c2.193,0,3.97-1.777,3.97-3.971V33.556l9.876,9.877c1.551,1.549,4.064,1.549,5.616,0C66.014,41.882,66.014,39.368,64.462,37.818z"></path></g><g id="SvgjsG1414" featureKey="nameFeature-0" transform="matrix(1.7418619410626142,0,0,1.7418619410626142,150.45060077938527,13.937748299011549)" fill="url(#SvgjsLinearGradient1419)"><path d="M8.64 13.600000000000001 c0.2 0 0.36 0.16 0.36 0.36 l0 21 l8.64 0 c0.2 0 0.36 0.16 0.36 0.36 l0 4.32 c0 0.2 -0.16 0.36 -0.36 0.36 l-13.56 0 c-0.2 0 -0.32 -0.16 -0.32 -0.36 l0 -25.68 c0 -0.2 0.12 -0.36 0.32 -0.36 l4.56 0 z M6.16 16.04 l0 21.52 c0 0.08 0.08 0.2 0.24 0.2 l9.24 0 c0.32 0 0.32 -0.52 0 -0.52 l-9.04 0 l0 -21.2 c0 -0.28 -0.44 -0.32 -0.44 0 z M32.28 13.239999999999998 c3.44 0 5.84 0.76 7.36 2.4 c1.2 1.32 1.76 3.2 1.76 5.88 l0 10.52 c0 2.76 -0.56 4.68 -1.76 5.96 c-1.56 1.6 -3.92 2.4 -7.36 2.4 c-3.56 0 -5.88 -0.8 -7.4 -2.4 c-1.16 -1.28 -1.8 -3.2 -1.8 -5.96 l0 -10.52 c0 -2.68 0.64 -4.56 1.8 -5.92 c1.56 -1.6 3.92 -2.36 7.4 -2.36 z M36.08 30.84 l0 -8 c0 -3.52 -1.88 -4.24 -3.6 -4.24 l-0.48 0 c-2.56 0 -3.56 1.64 -3.56 4.24 l0 8 c0 3.52 1.88 4.28 3.56 4.28 l0.48 0 c2.56 0 3.56 -1.72 3.6 -4.28 z M25.6 21.8 l0 9.92 c0 1.88 0.48 3.44 1.6 4.6 c1.04 1.04 2.64 1.6 4.6 1.6 l1.04 0 c3.76 0 6.2 -2.4 6.2 -6.2 l0 -9.92 c0 -4.08 -2.16 -6.28 -6.2 -6.28 l-1.04 0 c-4.08 0 -6.2 2.2 -6.2 6.28 z M32.84 37.4 l-1.04 0 c-1.88 0 -3.28 -0.48 -4.28 -1.48 s-1.52 -2.4 -1.52 -4.2 l0 -9.92 c0 -3.8 2.04 -5.8 5.8 -5.8 l1.04 0 c3.8 0 5.68 1.96 5.68 5.8 l0 9.92 c0 1.68 -0.52 3.2 -1.6 4.24 c-1.04 0.88 -2.44 1.44 -4.08 1.44 z M57.08 13.239999999999998 c3.44 0 5.84 0.76 7.36 2.4 c1.2 1.32 1.76 3.2 1.76 5.88 l0 10.52 c0 2.76 -0.56 4.68 -1.76 5.96 c-1.56 1.6 -3.92 2.4 -7.36 2.4 c-3.56 0 -5.88 -0.8 -7.4 -2.4 c-1.16 -1.28 -1.8 -3.2 -1.8 -5.96 l0 -10.52 c0 -2.68 0.64 -4.56 1.8 -5.92 c1.56 -1.6 3.92 -2.36 7.4 -2.36 z M60.879999999999995 30.84 l0 -8 c0 -3.52 -1.88 -4.24 -3.6 -4.24 l-0.48 0 c-2.56 0 -3.56 1.64 -3.56 4.24 l0 8 c0 3.52 1.88 4.28 3.56 4.28 l0.48 0 c2.56 0 3.56 -1.72 3.6 -4.28 z M50.4 21.8 l0 9.92 c0 1.88 0.48 3.44 1.6 4.6 c1.04 1.04 2.64 1.6 4.6 1.6 l1.04 0 c3.76 0 6.2 -2.4 6.2 -6.2 l0 -9.92 c0 -4.08 -2.16 -6.28 -6.2 -6.28 l-1.04 0 c-4.08 0 -6.2 2.2 -6.2 6.28 z M57.64 37.4 l-1.04 0 c-1.88 0 -3.28 -0.48 -4.28 -1.48 s-1.52 -2.4 -1.52 -4.2 l0 -9.92 c0 -3.8 2.04 -5.8 5.8 -5.8 l1.04 0 c3.8 0 5.68 1.96 5.68 5.8 l0 9.92 c0 1.68 -0.52 3.2 -1.6 4.24 c-1.04 0.88 -2.44 1.44 -4.08 1.44 z M90 13.600000000000001 c0.28 0 0.44 0.32 0.28 0.56 l-6.28 8.68 l6.64 16.72 c0.08 0.2 -0.04 0.44 -0.32 0.44 l-5.4 0 c-0.12 0 -0.24 -0.08 -0.28 -0.24 l-4.16 -11.96 l-2.04 2.8 l0 9.04 c0 0.2 -0.16 0.36 -0.36 0.36 l-4.56 0 c-0.2 0 -0.32 -0.16 -0.32 -0.36 l0 -25.68 c0 -0.2 0.12 -0.36 0.32 -0.36 l4.56 0 c0.2 0 0.36 0.16 0.36 0.36 l0 8.28 l6.28 -8.48 c0.12 -0.16 0.16 -0.16 0.32 -0.16 l4.96 0 z M75.6 16 l0 21.56 c0 0.28 0.44 0.28 0.44 0 l0 -7.76 l5 -6.64 l5.6 14.48 c0.08 0.2 0.56 0.08 0.44 -0.24 l-5.68 -14.76 l5.2 -6.92 c0.2 -0.2 -0.16 -0.56 -0.4 -0.32 l-10.16 13.6 l0 -13 c0 -0.28 -0.44 -0.28 -0.44 0 z M109.16000000000001 30.759999999999998 l0 -16.8 c0 -0.2 0.16 -0.36 0.36 -0.36 l4.56 0 c0.2 0 0.36 0.16 0.36 0.36 l0 18.08 c0 5.76 -3.16 8.36 -9.12 8.36 c-5.64 0 -9.16 -2.24 -9.16 -8.36 l0 -18.08 c0 -0.2 0.16 -0.36 0.36 -0.36 l4.6 0 c0.2 0 0.36 0.16 0.36 0.36 l0 16.8 c0 3.48 1.96 4.24 3.6 4.24 l0.48 0 c2.48 0 3.6 -1.68 3.6 -4.24 z M98.64 16.16 l0 15.56 c0 3.6 2.44 6.2 6.24 6.2 l1 0 c3.8 0 6.28 -2.72 6.28 -6.2 l0 -15.56 c0 -0.36 -0.48 -0.4 -0.48 0 l0 15.56 c0 3.28 -2.36 5.68 -5.8 5.68 l-1 0 c-3.36 0 -5.76 -2.16 -5.76 -5.68 l0 -15.56 c0 -0.36 -0.48 -0.36 -0.48 0 z M130.24 13.600000000000001 c4.44 0 7.12 2.52 7.12 7.2 l0 5.04 c0 4.28 -2.64 7.16 -7.12 7.16 l-3.36 0 l0 6.64 c0 0.2 -0.16 0.36 -0.36 0.36 l-4.6 0 c-0.16 0 -0.28 -0.16 -0.28 -0.36 l0 -25.68 c0 -0.2 0.12 -0.36 0.28 -0.36 l8.32 0 z M132.12 24.64 l0 -2.64 c0 -2.76 -1.28 -3.04 -4.08 -3.04 l-1.16 0 l0 8.8 l1.16 0 c2.2 0 4.08 -0.4 4.08 -3.12 z M134.96 25.560000000000002 l0 -5 c0 -4.4 -3.4 -4.76 -5.24 -4.76 l-5.4 0 c-0.08 0 -0.24 0.12 -0.24 0.24 l0 21.52 c0 0.28 0.48 0.28 0.48 0 l0 -6.8 l4.8 0 c3.52 0 5.6 -1.24 5.6 -5.2 z M124.56 16.32 l5.16 0 c4.44 0 4.72 2.92 4.72 4.24 l0 5 c0 4.08 -2.56 4.64 -5.08 4.64 l-4.8 0 l0 -13.88 z"></path></g><g id="SvgjsG1415" featureKey="sloganFeature-0" transform="matrix(1.1490091603050598,0,0,1.1490091603050598,156.071791368932,96.39356058605469)" fill="url(#SvgjsLinearGradient1423)"><path d="M5.12 10.26 l1.7 -3.36 c0.06 -0.1 0.08 -0.1 0.16 -0.1 l2.24 0 c0.12 0 0.2 0.12 0.16 0.22 l-2.9 6.74 l0 6.06 c0 0.1 -0.08 0.18 -0.18 0.18 l-2.36 0 c-0.06 0 -0.14 -0.08 -0.14 -0.18 l0 -6.06 l-2.98 -6.7 c-0.04 -0.14 0.02 -0.26 0.16 -0.26 l2.24 0 c0.08 0 0.1 0 0.16 0.1 z M9.62 7.119999999999999 c0.2 0.2 0.48 0.46 0.6 0.58 c0.06 0.06 0.08 0.12 0.06 0.2 l-0.14 0.28 l-0.66 -0.68 l0.14 -0.38 l0 0 z M9.12 8.3 l0.18 -0.4 l0.68 0.68 l-0.18 0.4 z M9.62 9.36 l-0.18 0.4 l-0.66 -0.68 l0.16 -0.4 z M9.3 10.16 l-0.18 0.36 l-0.68 -0.66 l0.18 -0.4 z M8.94 10.92 l-0.16 0.38 l-0.68 -0.68 l0.18 -0.36 z M4.42 8.08 l-0.28 -0.28 l-0.16 -0.34 l0.2 0.2 c0.06 0.06 0.12 0.12 0.14 0.16 z M8.6 11.7 l-0.16 0.4 l-0.66 -0.68 l0.14 -0.4 z M7.42 12.2 l0.18 -0.4 l0.68 0.68 l-0.18 0.4 z M5.2 9.58 l-0.08 0.12 l-0.38 -0.74 l0.28 0.3 z M7.92 13.280000000000001 l-0.18 0.38 l-0.66 -0.68 l0.16 -0.38 z M6.74 13.780000000000001 l0.18 -0.4 l0.68 0.68 l-0.18 0.4 z M6.72 14.879999999999999 l0 -0.58 l0.62 0.62 l0 0.56 z M6.72 16 l0 -0.58 l0.62 0.64 l0 0.54 z M6.72 17.12 l0 -0.56 l0.62 0.62 l0 0.54 z M6.72 18.22 l0 -0.54 l0.62 0.62 l0 0.56 z M6.72 19.36 l0 -0.56 l0.62 0.62 l0 0.56 z M6.48 20.22 c0.12 -0.04 0.22 -0.16 0.24 -0.32 l0.62 0.62 l0 0.18 c0 0.1 -0.06 0.18 -0.16 0.18 l-0.06 0 z M5.38 20.26 l0.54 0 l0.62 0.62 l-0.54 0 z M4.88 20.88 l-0.64 -0.62 l0.58 0 l0.6 0.62 l-0.54 0 z M19.0615 6.619999999999999 c1.72 0 2.92 0.38 3.68 1.2 c0.6 0.66 0.88 1.6 0.88 2.94 l0 5.26 c0 1.38 -0.28 2.34 -0.88 2.98 c-0.78 0.8 -1.96 1.2 -3.68 1.2 c-1.78 0 -2.94 -0.4 -3.7 -1.2 c-0.58 -0.64 -0.9 -1.6 -0.9 -2.98 l0 -5.26 c0 -1.34 0.3 -2.3 0.9 -2.96 c0.76 -0.82 1.96 -1.18 3.7 -1.18 z M20.9615 15.42 l0 -4 c0 -1.76 -0.94 -2.12 -1.8 -2.12 l-0.24 0 c-1.28 0 -1.78 0.82 -1.78 2.12 l0 4 c0 1.76 0.94 2.14 1.78 2.14 l0.24 0 c1.28 0 1.78 -0.86 1.8 -2.14 z M23.5215 8.6 c0.04 0.06 0.1 0.1 0.1 0.1 c0.16 0.18 0.32 0.4 0.44 0.66 l-0.42 -0.44 c-0.06 -0.12 -0.08 -0.22 -0.12 -0.32 z M23.7815 9.66 l0.56 0.54 c0.04 0.2 0.1 0.42 0.12 0.68 l-0.6 -0.6 c-0.02 -0.22 -0.04 -0.42 -0.08 -0.62 z M23.8615 10.86 l0.62 0.6 l0 0.16 l0 0.4 l-0.62 -0.62 l0 -0.54 z M24.4815 12.58 l0 0.58 l-0.62 -0.64 l0 -0.54 z M20.4215 10.2 l-0.5 -0.5 c0.26 0.12 0.42 0.28 0.54 0.5 l-0.04 0 z M23.8615 13.66 l0 -0.56 l0.62 0.6 l0 0.58 z M23.8615 14.780000000000001 l0 -0.58 l0.62 0.62 l0 0.58 z M18.9215 9.56 l0.3 0 l0.62 0.62 l-0.06 0 c-0.16 0 -0.32 0 -0.46 0.02 l-0.66 -0.62 c0.08 -0.02 0.18 -0.02 0.26 -0.02 z M23.8615 15.9 l0 -0.58 l0.62 0.64 l0 0.54 z M17.8415 9.88 c0.1 -0.1 0.22 -0.16 0.38 -0.2 l0.66 0.68 c-0.14 0.04 -0.24 0.12 -0.34 0.22 z M17.4615 10.62 c0.06 -0.16 0.08 -0.3 0.16 -0.42 l0.66 0.68 c-0.06 0.12 -0.12 0.24 -0.14 0.4 z M23.8215 16.98 c0.02 -0.18 0.04 -0.36 0.04 -0.52 l0.62 0.62 c0 0.18 -0.02 0.38 -0.02 0.52 z M23.6415 17.9 c0.04 -0.12 0.08 -0.3 0.1 -0.44 l0.64 0.64 c-0.02 0.18 -0.04 0.32 -0.1 0.48 z M17.3815 11.42 c0 -0.1 0 -0.2 0.04 -0.3 l0.62 0.64 c-0.02 0.16 -0.02 0.34 -0.02 0.52 l-0.64 -0.6 l0 -0.26 z M23.2815 18.68 c0.08 -0.1 0.16 -0.22 0.2 -0.36 l0.68 0.68 c-0.04 0.12 -0.12 0.26 -0.2 0.38 z M17.3815 12.8 l0 -0.58 l0.64 0.64 l0 0.54 z M22.7815 19.3 c0.14 -0.1 0.16 -0.12 0.28 -0.28 l0.7 0.68 c-0.02 0.08 -0.14 0.2 -0.28 0.3 z M17.3815 13.9 l0 -0.54 l0.64 0.62 l0 0.54 z M22.1415 19.78 c0.12 -0.06 0.24 -0.12 0.34 -0.2 l0.68 0.68 c-0.1 0.06 -0.2 0.14 -0.32 0.22 z M17.3815 15.02 l0 -0.54 l0.64 0.62 l0 0.56 z M21.7815 19.98 l0.68 0.68 c-0.14 0.04 -0.28 0.1 -0.42 0.14 l-0.68 -0.68 c0.16 -0.04 0.28 -0.1 0.42 -0.14 z M17.4215 15.6 l0.6 0.6 l0 0.06 c0 0.2 0 0.4 0.02 0.54 l-0.52 -0.52 c-0.08 -0.2 -0.1 -0.42 -0.1 -0.68 z M20.941499999999998 20.26 l0.64 0.66 c-0.14 0.04 -0.3 0.06 -0.46 0.08 l-0.66 -0.64 c0.18 -0.04 0.32 -0.06 0.48 -0.1 z M20.0615 21.08 l-0.62 -0.62 c0.2 0 0.38 0 0.52 -0.04 l0.66 0.64 c-0.18 0 -0.36 0.02 -0.56 0.02 z M19.4815 21.08 c-0.2 -0.02 -0.4 -0.02 -0.6 -0.06 l-0.56 -0.6 c0.16 0.04 0.36 0.04 0.56 0.04 z M17.4215 20.68 l-0.46 -0.48 c0.22 0.08 0.46 0.12 0.7 0.16 l0.52 0.54 c-0.26 -0.04 -0.52 -0.12 -0.76 -0.22 z M36.103 15.379999999999999 l0 -8.4 c0 -0.1 0.08 -0.18 0.18 -0.18 l2.28 0 c0.1 0 0.18 0.08 0.18 0.18 l0 9.04 c0 2.88 -1.58 4.18 -4.56 4.18 c-2.82 0 -4.58 -1.12 -4.58 -4.18 l0 -9.04 c0 -0.1 0.08 -0.18 0.18 -0.18 l2.3 0 c0.1 0 0.18 0.08 0.18 0.18 l0 8.4 c0 1.74 0.98 2.12 1.8 2.12 l0.24 0 c1.24 0 1.8 -0.84 1.8 -2.12 z M39.603 8.2 l0 0.56 l-0.62 -0.64 l0 -0.54 z M38.983 9.26 l0 -0.56 l0.62 0.6 l0 0.58 z M38.983 10.38 l0 -0.56 l0.62 0.6 l0 0.58 z M38.983 11.5 l0 -0.54 l0.62 0.6 l0 0.56 z M38.983 12.620000000000001 l0 -0.54 l0.62 0.6 l0 0.58 z M33.143 7.82 l0 0.08 l-0.64 -0.62 l0 -0.12 l0.58 0.56 c0.02 0.04 0.06 0.06 0.06 0.1 z M38.983 13.76 l0 -0.58 l0.62 0.62 l0 0.56 z M33.143 8.46 l0 0.54 l-0.64 -0.6 l0 -0.58 z M38.983 14.879999999999999 l0 -0.58 l0.62 0.62 l0 0.56 z M33.143 9.58 l0 0.54 l-0.64 -0.6 l0 -0.56 z M38.983 16 l0 -0.58 l0.62 0.64 l0 0.54 z M38.903 17.06 c0.04 -0.18 0.06 -0.36 0.06 -0.54 l0.62 0.66 c0 0.18 0 0.34 -0.02 0.5 z M33.143 10.7 l0 0.56 l-0.64 -0.6 l0 -0.58 z M33.143 11.82 l0 0.56 l-0.64 -0.62 l0 -0.56 z M38.683 17.96 c0.06 -0.16 0.1 -0.3 0.12 -0.46 l0.68 0.68 c-0.04 0.14 -0.08 0.3 -0.12 0.42 z M38.303 18.7 c0.08 -0.12 0.16 -0.24 0.2 -0.38 l0.7 0.7 c-0.06 0.14 -0.12 0.26 -0.2 0.36 z M33.143 12.96 l0 0.54 l-0.64 -0.62 l0 -0.56 z M33.143 14.059999999999999 l0 0.56 l-0.64 -0.62 l0 -0.54 z M38.783 19.7 c-0.1 0.1 -0.18 0.2 -0.28 0.3 l-0.7 -0.7 c0.1 -0.08 0.2 -0.18 0.28 -0.28 z M37.503 19.58 l0.68 0.68 c-0.1 0.06 -0.2 0.14 -0.32 0.22 l-0.7 -0.68 c0.12 -0.08 0.24 -0.14 0.34 -0.22 z M33.143 15.18 l0 0.58 l-0.64 -0.64 l0 -0.54 z M32.543 15.7 l0.6 0.6 c0 0.22 0.02 0.46 0.04 0.62 l-0.5 -0.5 c-0.08 -0.2 -0.12 -0.44 -0.14 -0.72 z M36.803 19.98 l0.68 0.68 c-0.14 0.04 -0.28 0.1 -0.42 0.14 l-0.68 -0.64 c0.16 -0.06 0.28 -0.1 0.42 -0.18 z M35.483 20.36 c0.18 -0.04 0.32 -0.06 0.48 -0.1 l0.64 0.66 c-0.14 0.04 -0.3 0.06 -0.46 0.08 z M34.463 20.46 c0.18 0 0.34 -0.04 0.52 -0.04 l0.66 0.64 c-0.18 0 -0.38 0.02 -0.56 0.02 z M34.503 21.06 c-0.22 0 -0.42 -0.04 -0.62 -0.06 l-0.58 -0.6 c0.18 0.02 0.38 0.06 0.6 0.06 z M32.203 20.22 c0.16 0.04 0.28 0.08 0.46 0.1 l0.52 0.54 c-0.32 -0.08 -0.62 -0.2 -0.9 -0.36 l-0.4 -0.38 c0.1 0.04 0.22 0.06 0.32 0.1 z M52.4645 14.780000000000001 c-0.28 0.58 -0.68 1.02 -1.24 1.28 l1.68 3.7 c0.06 0.12 -0.02 0.24 -0.14 0.24 l-2.46 0 c-0.08 0 -0.12 -0.04 -0.14 -0.1 l-1.56 -3.4 l-1.02 0 l0 3.32 c0 0.1 -0.08 0.18 -0.18 0.18 l-2.3 0 c-0.08 0 -0.14 -0.08 -0.14 -0.18 l0 -12.84 c0 -0.1 0.06 -0.18 0.14 -0.18 l4.16 0 c2.22 0 3.56 1.26 3.56 3.6 l0 2.52 c0 0.7 -0.12 1.36 -0.36 1.86 z M50.204499999999996 12.3 l0 -1.3 c0 -1.4 -0.52 -1.54 -2.04 -1.54 l-0.58 0 l0 4.42 l0.58 0 c1.26 0 2 -0.02 2.04 -1.58 z M52.7245 20.88 l-0.62 -0.62 l0.56 0 l0.62 0.62 l-0.56 0 z M47.8245 17.1 l0 -0.34 l0.2 0 l0.64 0.62 l-0.2 0 l0 0.34 z M51.6045 20.88 l-0.62 -0.62 l0.54 0 l0.64 0.62 l-0.56 0 z M48.4645 18.86 l-0.64 -0.64 l0 -0.54 l0.64 0.62 l0 0.56 z M48.4645 19.98 l-0.64 -0.62 l0 -0.56 l0.64 0.62 l0 0.56 z M47.5845 20.22 c0.12 -0.04 0.22 -0.16 0.24 -0.32 l0.64 0.66 l0 0.14 c0 0.1 -0.08 0.18 -0.18 0.18 l-0.06 0 z M47.1045 20.88 l-0.62 -0.62 l0.58 0 l0.62 0.62 l-0.58 0 z M45.9845 20.88 l-0.62 -0.62 l0.56 0 l0.64 0.62 l-0.58 0 z M53.6645 10.6 l-0.58 -0.6 c-0.02 -0.22 -0.06 -0.44 -0.1 -0.64 l0.52 0.52 c0.08 0.22 0.12 0.48 0.16 0.72 z M53.704499999999996 11.76 l-0.62 -0.64 l0 -0.54 l0.62 0.62 l0 0.56 z M53.704499999999996 12.879999999999999 l-0.62 -0.62 l0 -0.56 l0.62 0.62 l0 0.56 z M53.064499999999995 13.36 c0.02 -0.14 0.02 -0.28 0.02 -0.44 l0 -0.1 l0.62 0.64 l0 0.34 l0 0.2 z M49.4845 9.78 c0.14 0.08 0.24 0.18 0.34 0.34 z M49.4645 10.32 l-0.56 0 l-0.62 -0.62 l0.54 0 z M53.5845 15 l-0.68 -0.68 c0.02 -0.14 0.08 -0.3 0.1 -0.46 l0.66 0.66 c-0.04 0.16 -0.06 0.34 -0.08 0.48 z M48.4645 10.46 l0 0.54 l-0.64 -0.62 l0 -0.58 z M52.564499999999995 15.1 c0.04 -0.08 0.06 -0.12 0.12 -0.22 c0.02 -0.06 0.04 -0.1 0.08 -0.16 l0.66 0.7 c-0.02 0.08 -0.04 0.16 -0.1 0.24 c-0.02 0.04 -0.04 0.1 -0.06 0.14 z M48.4645 11.56 l0 0.56 l-0.64 -0.62 l0 -0.58 z M52.784499999999994 16.46 l-0.7 -0.7 c0.1 -0.1 0.18 -0.2 0.24 -0.3 l0.7 0.7 c-0.06 0.1 -0.14 0.2 -0.24 0.3 z M48.4645 12.68 l0 0.58 l-0.64 -0.64 l0 -0.56 z M51.704499999999996 16.5 l-0.14 -0.32 c0.06 -0.06 0.14 -0.1 0.22 -0.18 l0.7 0.7 c-0.1 0.08 -0.22 0.16 -0.36 0.22 z M53.024499999999996 18.92 l-0.36 -0.36 l-0.48 -1.04 l0.38 0.38 z M47.8245 13.620000000000001 l0 -0.44 l0.46 0.44 l-0.12 0 l-0.34 0 z M53.0845 20.12 c0.12 -0.12 0.12 -0.3 0.08 -0.46 l-0.04 -0.06 l0.36 0.36 l0.32 0.66 c0.02 0.08 0 0.14 -0.02 0.18 z M73.38749999999999 6.800000000000001 c2.22 0 3.56 1.26 3.56 3.6 l0 2.52 c0 2.14 -1.32 3.58 -3.56 3.58 l-1.68 0 l0 3.32 c0 0.1 -0.08 0.18 -0.18 0.18 l-2.3 0 c-0.08 0 -0.14 -0.08 -0.14 -0.18 l0 -12.84 c0 -0.1 0.06 -0.18 0.14 -0.18 l4.16 0 z M74.3275 12.32 l0 -1.32 c0 -1.38 -0.64 -1.52 -2.04 -1.52 l-0.58 0 l0 4.4 l0.58 0 c1.1 0 2.04 -0.2 2.04 -1.56 z M77.7875 10.56 l-0.58 -0.6 c-0.02 -0.24 -0.06 -0.46 -0.1 -0.66 l0.52 0.52 c0.08 0.24 0.12 0.48 0.16 0.74 z M77.8275 11.16 l0 0.56 l-0.62 -0.62 l0 -0.58 z M77.2075 12.219999999999999 l0 -0.56 l0.62 0.62 l0 0.58 z M77.2075 12.92 l0 -0.14 l0.62 0.62 l0 0.4 l0 0.16 l-0.62 -0.64 l0 -0.4 z M73.6475 10.36 l-0.54 0 l-0.62 -0.64 c0.22 0 0.4 0 0.56 0.04 z M77.0075 14.280000000000001 c0.04 -0.16 0.1 -0.3 0.12 -0.46 l0.66 0.66 c-0.04 0.14 -0.06 0.32 -0.1 0.48 z M76.6875 15.059999999999999 c0.06 -0.14 0.12 -0.26 0.16 -0.38 l0.7 0.7 c-0.04 0.12 -0.12 0.24 -0.2 0.38 z M72.58749999999999 10.4 l0 0.56 l-0.64 -0.64 l0 -0.54 z M76.1875 15.68 c0.1 -0.08 0.2 -0.18 0.26 -0.28 l0.7 0.68 c-0.1 0.12 -0.16 0.22 -0.26 0.3 l-0.7 -0.68 l0 -0.02 z M72.58749999999999 11.52 l0 0.56 l-0.64 -0.62 l0 -0.56 z M72.58749999999999 12.66 l0 0.54 l-0.64 -0.62 l0 -0.56 z M75.5475 16.18 c0.14 -0.06 0.24 -0.16 0.34 -0.22 l0.7 0.7 c-0.1 0.06 -0.2 0.14 -0.34 0.22 z M74.80749999999999 16.52 c0.12 -0.02 0.28 -0.06 0.4 -0.14 l0.68 0.7 c-0.14 0.04 -0.28 0.1 -0.4 0.12 z M72.4275 13.620000000000001 l-0.48 0 l0 -0.46 z M73.8475 16.72 c0.18 -0.02 0.34 -0.02 0.5 -0.06 l0.66 0.66 c-0.16 0.04 -0.32 0.04 -0.5 0.06 z M72.7475 16.759999999999998 l0.58 0 l0.62 0.62 l-0.56 0 z M71.94749999999999 16.759999999999998 l0.26 0 l0.62 0.62 l-0.24 0 l0 0.32 l-0.64 -0.62 l0 -0.32 z M71.94749999999999 18.2 l0 -0.58 l0.64 0.64 l0 0.54 z M71.94749999999999 19.32 l0 -0.56 l0.64 0.62 l0 0.54 z M70.6475 20.26 l0.56 0 l0.62 0.62 l-0.54 0 z M69.52749999999999 20.26 l0.56 0 l0.62 0.62 l-0.56 0 z M71.72749999999999 20.2 c0.12 -0.04 0.2 -0.18 0.22 -0.32 l0.64 0.62 l0 0.2 c0 0.1 -0.08 0.18 -0.18 0.18 z M86.729 6.619999999999999 c1.72 0 2.92 0.38 3.68 1.2 c0.6 0.66 0.88 1.6 0.88 2.94 l0 5.26 c0 1.38 -0.28 2.34 -0.88 2.98 c-0.78 0.8 -1.96 1.2 -3.68 1.2 c-1.78 0 -2.94 -0.4 -3.7 -1.2 c-0.58 -0.64 -0.9 -1.6 -0.9 -2.98 l0 -5.26 c0 -1.34 0.3 -2.3 0.9 -2.96 c0.76 -0.82 1.96 -1.18 3.7 -1.18 z M88.629 15.42 l0 -4 c0 -1.76 -0.94 -2.12 -1.8 -2.12 l-0.24 0 c-1.28 0 -1.78 0.82 -1.78 2.12 l0 4 c0 1.76 0.94 2.14 1.78 2.14 l0.24 0 c1.28 0 1.78 -0.86 1.8 -2.14 z M91.189 8.6 c0.04 0.06 0.1 0.1 0.1 0.1 c0.16 0.18 0.32 0.4 0.44 0.66 l-0.42 -0.44 c-0.06 -0.12 -0.08 -0.22 -0.12 -0.32 z M91.449 9.66 l0.56 0.54 c0.04 0.2 0.1 0.42 0.12 0.68 l-0.6 -0.6 c-0.02 -0.22 -0.04 -0.42 -0.08 -0.62 z M91.529 10.86 l0.62 0.6 l0 0.16 l0 0.4 l-0.62 -0.62 l0 -0.54 z M92.149 12.58 l0 0.58 l-0.62 -0.64 l0 -0.54 z M88.089 10.2 l-0.5 -0.5 c0.26 0.12 0.42 0.28 0.54 0.5 l-0.04 0 z M91.529 13.66 l0 -0.56 l0.62 0.6 l0 0.58 z M91.529 14.780000000000001 l0 -0.58 l0.62 0.62 l0 0.58 z M86.589 9.56 l0.3 0 l0.62 0.62 l-0.06 0 c-0.16 0 -0.32 0 -0.46 0.02 l-0.66 -0.62 c0.08 -0.02 0.18 -0.02 0.26 -0.02 z M91.529 15.9 l0 -0.58 l0.62 0.64 l0 0.54 z M85.509 9.88 c0.1 -0.1 0.22 -0.16 0.38 -0.2 l0.66 0.68 c-0.14 0.04 -0.24 0.12 -0.34 0.22 z M85.129 10.62 c0.06 -0.16 0.08 -0.3 0.16 -0.42 l0.66 0.68 c-0.06 0.12 -0.12 0.24 -0.14 0.4 z M91.489 16.98 c0.02 -0.18 0.04 -0.36 0.04 -0.52 l0.62 0.62 c0 0.18 -0.02 0.38 -0.02 0.52 z M91.309 17.9 c0.04 -0.12 0.08 -0.3 0.1 -0.44 l0.64 0.64 c-0.02 0.18 -0.04 0.32 -0.1 0.48 z M85.049 11.42 c0 -0.1 0 -0.2 0.04 -0.3 l0.62 0.64 c-0.02 0.16 -0.02 0.34 -0.02 0.52 l-0.64 -0.6 l0 -0.26 z M90.949 18.68 c0.08 -0.1 0.16 -0.22 0.2 -0.36 l0.68 0.68 c-0.04 0.12 -0.12 0.26 -0.2 0.38 z M85.049 12.8 l0 -0.58 l0.64 0.64 l0 0.54 z M90.449 19.3 c0.14 -0.1 0.16 -0.12 0.28 -0.28 l0.7 0.68 c-0.02 0.08 -0.14 0.2 -0.28 0.3 z M85.049 13.9 l0 -0.54 l0.64 0.62 l0 0.54 z M89.809 19.78 c0.12 -0.06 0.24 -0.12 0.34 -0.2 l0.68 0.68 c-0.1 0.06 -0.2 0.14 -0.32 0.22 z M85.049 15.02 l0 -0.54 l0.64 0.62 l0 0.56 z M89.449 19.98 l0.68 0.68 c-0.14 0.04 -0.28 0.1 -0.42 0.14 l-0.68 -0.68 c0.16 -0.04 0.28 -0.1 0.42 -0.14 z M85.089 15.6 l0.6 0.6 l0 0.06 c0 0.2 0 0.4 0.02 0.54 l-0.52 -0.52 c-0.08 -0.2 -0.1 -0.42 -0.1 -0.68 z M88.609 20.26 l0.64 0.66 c-0.14 0.04 -0.3 0.06 -0.46 0.08 l-0.66 -0.64 c0.18 -0.04 0.32 -0.06 0.48 -0.1 z M87.729 21.08 l-0.62 -0.62 c0.2 0 0.38 0 0.52 -0.04 l0.66 0.64 c-0.18 0 -0.36 0.02 -0.56 0.02 z M87.149 21.08 c-0.2 -0.02 -0.4 -0.02 -0.6 -0.06 l-0.56 -0.6 c0.16 0.04 0.36 0.04 0.56 0.04 z M85.089 20.68 l-0.46 -0.48 c0.22 0.08 0.46 0.12 0.7 0.16 l0.52 0.54 c-0.26 -0.04 -0.52 -0.12 -0.76 -0.22 z M101.9105 11.9 c1.52 0.72 3.5 1.86 3.5 3.92 c0 0.6 -0.1 1.76 -0.76 2.74 c-0.74 1.1 -1.9 1.64 -3.5 1.64 c-1.7 0 -3.68 -0.82 -4.3 -2.68 c-0.02 -0.06 0 -0.12 0.06 -0.16 l1.84 -1.58 c0.08 -0.06 0.2 -0.06 0.26 0.04 c0.04 0.1 0.12 0.26 0.22 0.46 c0.3 0.62 1.02 1.24 1.82 1.24 c0.62 0 1.46 -0.34 1.46 -1.3 c0 -0.92 -1.26 -1.44 -2.04 -1.74 c-0.9 -0.36 -1.82 -0.82 -2.6 -1.5 c-0.82 -0.76 -1.22 -1.6 -1.22 -2.6 c0 -2.5 2.3 -3.76 4.48 -3.76 c1.72 0 3 0.9 3.84 2.68 c0.04 0.08 0 0.18 -0.06 0.22 l-1.78 1.24 c-0.08 0.04 -0.12 0.04 -0.2 -0.06 c-0.68 -0.98 -1.28 -1.44 -2.08 -1.44 c-0.42 0 -1.4 0.16 -1.4 0.9 c0 0.9 1.66 1.36 2.46 1.74 z M105.0505 9.72 c0.12 -0.1 0.2 -0.24 0.18 -0.4 l0.34 0.36 c0.08 0.14 0.18 0.32 0.28 0.5 c0.02 0.08 0 0.18 -0.08 0.22 l-0.02 0.02 z M105.1105 10.88 l-0.7 -0.7 l0.32 -0.22 l0.7 0.7 z M104.43050000000001 11.32 l-0.7 -0.7 l0.32 -0.22 l0.7 0.7 z M101.7305 9.76 c0.18 0.12 0.34 0.26 0.52 0.44 c-0.02 0 -0.08 -0.02 -0.1 -0.02 z M100.4105 9.56 c0.14 -0.04 0.3 -0.06 0.52 -0.06 l0.62 0.66 c-0.14 0 -0.3 0.02 -0.48 0.06 z M99.7305 10 c0.02 -0.08 0.1 -0.2 0.28 -0.3 l0.7 0.7 c-0.14 0.08 -0.24 0.18 -0.28 0.3 z M105.65050000000001 15.92 l0 -0.1 c0 -0.16 -0.02 -0.34 -0.04 -0.5 l0.54 0.56 c0.06 0.2 0.1 0.42 0.1 0.64 z M105.5505 16.96 c0.02 -0.18 0.06 -0.36 0.06 -0.5 l0.64 0.64 c0 0.16 -0.02 0.3 -0.04 0.5 z M105.9705 18.5 l-0.66 -0.68 c0.04 -0.14 0.1 -0.3 0.12 -0.42 l0.68 0.68 c-0.04 0.12 -0.08 0.28 -0.14 0.42 z M105.6305 19.26 l-0.7 -0.68 c0.08 -0.12 0.14 -0.26 0.2 -0.38 l0.7 0.7 c-0.08 0.12 -0.12 0.26 -0.2 0.36 z M105.15050000000001 19.9 l-0.7 -0.7 c0.08 -0.1 0.18 -0.2 0.26 -0.3 l0.7 0.7 c-0.08 0.1 -0.18 0.2 -0.26 0.3 z M99.6305 14.4 c0.24 0.1 0.5 0.22 0.74 0.32 c0.08 0.04 0.16 0.06 0.24 0.08 l0.42 0.42 c-0.38 -0.14 -0.76 -0.32 -1.1 -0.54 z M104.5305 20.42 l-0.68 -0.7 c0.1 -0.06 0.2 -0.14 0.3 -0.24 l0.7 0.7 c-0.1 0.1 -0.2 0.18 -0.32 0.24 z M103.7705 20.8 l-0.66 -0.68 c0.14 -0.06 0.26 -0.12 0.4 -0.2 l0.66 0.7 c-0.12 0.08 -0.24 0.14 -0.4 0.18 z M99.93050000000001 16.8 c-0.16 -0.12 -0.26 -0.28 -0.36 -0.4 l0.28 0.28 l0.02 0.02 c0.04 0.02 0.04 0.06 0.06 0.1 z M102.9105 21.02 l-0.68 -0.64 c0.18 -0.06 0.32 -0.08 0.48 -0.12 l0.64 0.66 c-0.14 0.06 -0.3 0.08 -0.44 0.1 z M101.8305 21.08 l-0.62 -0.62 c0.2 0 0.36 0 0.52 -0.04 l0.64 0.66 l-0.54 0 z M100.4705 20.86 l-0.52 -0.54 c0.22 0.06 0.46 0.08 0.68 0.1 l0.58 0.6 c-0.24 -0.04 -0.48 -0.1 -0.74 -0.16 z M99.5505 20.48 c-0.3 -0.16 -0.58 -0.36 -0.82 -0.58 c0.12 0.08 0.28 0.16 0.42 0.2 z M103.2105 11 l0.2 -0.12 l0.7 0.68 l-0.1 0.06 c-0.08 0.06 -0.1 0.08 -0.2 -0.02 z M110.252 9.3 c-0.1 0 -0.18 -0.08 -0.18 -0.18 l0 -2.14 c0 -0.1 0.08 -0.18 0.18 -0.18 l8.34 0 c0.1 0 0.18 0.08 0.18 0.18 l0 2.14 c0 0.1 -0.08 0.18 -0.18 0.18 l-2.84 0 l0 10.52 c0 0.1 -0.08 0.18 -0.18 0.18 l-2.3 0 c-0.1 0 -0.18 -0.08 -0.18 -0.18 l0 -10.52 l-2.84 0 z M119.032 7.16 c0.2 0.2 0.44 0.42 0.56 0.56 c0.04 0.04 0.06 0.08 0.06 0.1 l0 0.04 l-0.62 -0.64 l0 -0.06 z M119.032 8.36 l0 -0.58 l0.62 0.62 l0 0.58 z M119.032 9.12 l0 -0.22 l0.62 0.62 l0 0.48 c0 0.02 0 0.06 -0.02 0.08 l-0.68 -0.7 c0.04 -0.08 0.08 -0.16 0.08 -0.26 z M117.992 9.56 l0.56 0 l0.62 0.62 l-0.58 0 z M116.872 9.56 l0.56 0 l0.62 0.62 l-0.58 0 z M115.992 9.56 l0.3 0 l0.64 0.62 l-0.3 0 l0 0.24 l-0.64 -0.62 l0 -0.24 z M116.632 11 l0 0.56 l-0.64 -0.64 l0 -0.54 z M116.632 12.120000000000001 l0 0.56 l-0.64 -0.62 l0 -0.56 z M116.632 13.219999999999999 l0 0.58 l-0.64 -0.62 l0 -0.56 z M112.852 9.56 l0 0.46 l-0.48 -0.46 l0.48 0 z M111.872 10.18 l-0.62 -0.62 l0.54 0 l0.64 0.62 l-0.56 0 z M116.632 14.36 l0 0.56 l-0.64 -0.62 l0 -0.54 z M116.632 15.48 l0 0.58 l-0.64 -0.64 l0 -0.54 z M110.69200000000001 9.56 l0.6 0.62 l-0.16 0 c-0.06 0 -0.1 -0.02 -0.14 -0.06 l-0.56 -0.56 l0.26 0 z M116.632 16.6 l0 0.58 l-0.64 -0.62 l0 -0.58 z M116.632 17.72 l0 0.56 l-0.64 -0.6 l0 -0.58 z M115.992 18.8 l0 -0.58 l0.64 0.64 l0 0.54 z M116.632 19.98 l0 0.54 l-0.64 -0.62 l0 -0.54 z M116.392 20.88 l-0.56 0 l-0.6 -0.62 l0.36 0 c0.06 0 0.1 0 0.16 -0.04 z M115.272 20.88 l-0.54 0 l-0.64 -0.62 l0.56 0 z M113.452 20.26 l0.08 0 l0.62 0.62 c-0.06 0 -0.1 -0.02 -0.12 -0.06 z M126.6935 6.92 c0.02 -0.06 0.06 -0.12 0.14 -0.12 l2.48 0 c0.08 0 0.12 0.06 0.14 0.12 l3.46 12.86 c0.02 0.12 -0.06 0.22 -0.18 0.22 l-2.28 0 c-0.06 0 -0.12 -0.04 -0.14 -0.12 l-0.78 -2.8 l-2.92 0 l-0.76 2.8 c-0.02 0.08 -0.06 0.12 -0.14 0.12 l-2.3 0 c-0.12 0 -0.2 -0.1 -0.18 -0.22 z M127.2535 14.6 l1.66 0 l-0.86 -3.02 z M125.8335 20.22 c0.16 -0.04 0.26 -0.14 0.28 -0.26 l0.68 0.64 l-0.06 0.16 c-0.02 0.06 -0.08 0.12 -0.14 0.12 l-0.1 0 z M133.7335 20.82 c-0.02 0.04 -0.08 0.06 -0.12 0.06 l-0.4 0 l-0.62 -0.62 l0.14 0 c0.12 0 0.22 -0.06 0.3 -0.14 z M126.2335 19.5 l0.12 -0.44 l0.66 0.66 l-0.12 0.44 z M126.4535 18.6 l0.14 -0.42 l0.64 0.64 l-0.1 0.46 z M126.8135 17.32 l0.1 0 l0.58 0.6 l-0.14 0.46 l-0.64 -0.66 z M131.45350000000002 20.26 l0.58 0 l0.62 0.62 l-0.56 0 z M128.0335 17.96 l-0.6 -0.64 l0.56 0 l0.62 0.64 l-0.58 0 z M124.7335 20.26 l0.58 0 l0.6 0.62 l-0.56 0 z M124.79350000000001 20.88 l-0.48 0 c-0.02 0 -0.08 -0.02 -0.1 -0.06 l-0.6 -0.56 l0.58 0 z M129.5135 17.96 l-0.36 0 l-0.6 -0.64 l0.56 0 l0.32 0.34 z M131.61350000000002 12.52 l-0.52 -0.5 l-0.2 -0.76 l0.52 0.5 z M132.83350000000002 17.12 l-0.52 -0.52 l-0.2 -0.74 l0.52 0.5 z M133.2335 18.66 l-0.5 -0.5 l-0.2 -0.78 l0.5 0.5 z M132.4335 15.6 l-0.52 -0.52 l-0.2 -0.78 l0.5 0.52 z M130.0535 8.18 l0.54 0.52 l0.2 0.78 l-0.5 -0.52 z M133.6535 20.18 l-0.52 -0.5 l-0.2 -0.78 l0.5 0.52 z M132.0135 14.059999999999999 l-0.5 -0.5 l-0.22 -0.78 l0.52 0.52 z M131.1935 11 l-0.5 -0.52 l-0.2 -0.76 l0.5 0.5 z M127.6335 14.18 l0.12 -0.46 l0.64 0.64 l-0.58 0 z M128.2335 13.08 l0.22 0.78 l-0.56 -0.58 l0.1 -0.42 z M130.6535 20.26 l0.26 0 l0.62 0.62 l-0.2 0 c-0.04 0 -0.1 -0.02 -0.12 -0.06 z M129.8535 7.42 l-0.04 -0.2 l0.44 0.46 c0.04 0.02 0.08 0.08 0.08 0.12 l0.06 0.12 z M140.775 6.800000000000001 c0.1 0 0.18 0.08 0.18 0.18 l0 10.5 l4.32 0 c0.1 0 0.18 0.08 0.18 0.18 l0 2.16 c0 0.1 -0.08 0.18 -0.18 0.18 l-6.78 0 c-0.1 0 -0.16 -0.08 -0.16 -0.18 l0 -12.84 c0 -0.1 0.06 -0.18 0.16 -0.18 l2.28 0 z M146.335 19.4 l0 0.58 l-0.64 -0.62 l0 -0.58 z M146.155 20.88 l-0.06 0 l-0.64 -0.66 c0.12 -0.06 0.22 -0.16 0.24 -0.32 l0.64 0.62 l0 0.18 c0 0.1 -0.08 0.18 -0.18 0.18 z M144.935 20.26 l0.6 0.62 l-0.56 0 l-0.62 -0.62 l0.58 0 z M144.435 20.88 l-0.58 0 l-0.62 -0.62 l0.56 0 z M141.19500000000002 8.1 l0 -0.54 l0.64 0.62 l0 0.54 z M141.835 9.3 l0 0.56 l-0.64 -0.64 l0 -0.54 z M141.19500000000002 10.36 l0 -0.56 l0.64 0.62 l0 0.56 z M141.19500000000002 11.48 l0 -0.56 l0.64 0.6 l0 0.58 z M141.19500000000002 12.6 l0 -0.54 l0.64 0.6 l0 0.56 z M146.335 18.5 l0 0.36 l-0.64 -0.64 l0 -0.4 l0.58 0.58 c0.02 0.02 0.06 0.06 0.06 0.1 z M141.19500000000002 13.719999999999999 l0 -0.56 l0.64 0.62 l0 0.58 z M141.19500000000002 14.86 l0 -0.58 l0.64 0.62 l0 0.58 z M141.19500000000002 15.98 l0 -0.58 l0.64 0.62 l0 0.56 z M141.19500000000002 17.1 l0 -0.58 l0.64 0.64 l0 0.06 l-0.5 0 z M142.13500000000002 20.26 l0.54 0 l0.62 0.62 l-0.56 0 z M140.995 20.26 l0.56 0 l0.62 0.62 l-0.58 0 z M139.875 20.26 l0.56 0 l0.62 0.62 l-0.58 0 z M139.29500000000002 20.26 l0.64 0.62 l-0.56 0 l-0.62 -0.62 l0.54 0 z M172.018 6.800000000000001 c0.1 0 0.18 0.08 0.18 0.18 l0 12.84 c0 0.1 -0.08 0.18 -0.18 0.18 l-2.18 0 c-0.06 0 -0.16 -0.08 -0.16 -0.18 l0 -7.4 l-2.2 7.46 c-0.04 0.08 -0.08 0.12 -0.16 0.12 l-1.58 0 c-0.06 0 -0.14 -0.04 -0.16 -0.12 l-2.06 -7.6 l0 7.54 c0 0.1 -0.08 0.18 -0.18 0.18 l-2.22 0 c-0.08 0 -0.14 -0.08 -0.14 -0.18 l0 -12.84 c0 -0.1 0.06 -0.18 0.14 -0.18 l2.8 0 c0.08 0 0.16 0.06 0.18 0.12 l2.42 8.1 l2.66 -8.1 c0 -0.06 0.06 -0.12 0.14 -0.12 l2.7 0 z M173.05800000000002 8.4 l-0.6 -0.64 l0 -0.54 l0.6 0.6 l0 0.58 z M173.05800000000002 9.5 l-0.6 -0.6 l0 -0.56 l0.6 0.6 l0 0.56 z M173.05800000000002 10.62 l-0.6 -0.6 l0 -0.58 l0.6 0.62 l0 0.56 z M173.05800000000002 11.74 l-0.6 -0.6 l0 -0.58 l0.6 0.64 l0 0.54 z M173.05800000000002 12.86 l-0.6 -0.6 l0 -0.56 l0.6 0.62 l0 0.54 z M173.05800000000002 14 l-0.6 -0.6 l0 -0.58 l0.6 0.62 l0 0.56 z M173.05800000000002 15.120000000000001 l-0.6 -0.6 l0 -0.58 l0.6 0.6 l0 0.58 z M165.11800000000002 8.3 l-0.4 -0.4 l-0.16 -0.54 l0.36 0.36 c0.02 0.02 0.04 0.04 0.04 0.08 z M173.05800000000002 16.240000000000002 l-0.6 -0.6 l0 -0.58 l0.6 0.6 l0 0.58 z M173.05800000000002 17.36 l-0.6 -0.62 l0 -0.54 l0.6 0.6 l0 0.56 z M165.578 9.9 l-0.36 -0.4 l-0.26 -0.8 l0.4 0.4 z M173.05800000000002 18.5 l-0.6 -0.64 l0 -0.54 l0.6 0.6 l0 0.58 z M166.078 11.5 l-0.4 -0.4 l-0.24 -0.8 l0.4 0.4 z M169.11800000000002 15.2 l0 0.44 l-0.1 -0.1 z M173.05800000000002 19.6 l-0.6 -0.6 l0 -0.56 l0.6 0.6 l0 0.56 z M166.518 13.04 l-0.36 -0.34 l-0.24 -0.8 l0.4 0.4 l0.22 0.7 z M169.11800000000002 16.2 l0 0.56 l-0.36 -0.34 l0.12 -0.46 z M168.61800000000002 16.84 l0.5 0.48 l0 0.58 l-0.64 -0.64 z M171.478 20.26 l0.38 0 c0.08 0 0.12 0 0.18 -0.02 l0.62 0.62 l-0.58 0 z M170.95800000000003 20.86 l-0.6 -0.6 l0.58 0 l0.6 0.6 l-0.58 0 z M168.93800000000002 18.82 l-0.7 -0.68 l0.12 -0.42 l0.7 0.68 z M168.65800000000002 19.7 l-0.68 -0.7 l0.14 -0.44 l0.66 0.7 z M167.71800000000002 19.86 l0.02 -0.02 l0.12 -0.4 l0.68 0.68 l-0.12 0.44 z M163.818 15.4 l0.2 0.76 l-0.24 -0.22 l0 -0.58 z M167.018 20.26 l0.14 0 c0.1 0 0.22 -0.02 0.3 -0.06 l0.7 0.66 l-0.54 0 z M163.77800000000002 16.5 l0.46 0.44 l0.14 0.58 l0 0.14 l-0.6 -0.62 l0 -0.54 z M166.518 20.82 l-0.58 -0.56 l0.5 0 l0.6 0.6 l-0.42 0 c-0.04 0 -0.08 0 -0.1 -0.04 z M164.37800000000001 18.8 l-0.6 -0.64 l0 -0.54 l0.6 0.6 l0 0.58 z M164.37800000000001 19.92 l-0.6 -0.62 l0 -0.56 l0.6 0.6 l0 0.58 z M163.538 20.16 c0.12 -0.04 0.2 -0.2 0.22 -0.32 l0.62 0.62 l0 0.26 c0 0.08 -0.04 0.14 -0.14 0.14 z M163.11800000000002 20.86 l-0.6 -0.6 l0.54 0 l0.62 0.6 l-0.56 0 z M161.978 20.86 l-0.6 -0.6 l0.58 0 l0.6 0.6 l-0.58 0 z M172.358 20.02 c0.06 -0.1 0.1 -0.22 0.1 -0.36 l0 -0.1 l0.6 0.6 l0 0.56 z M181.0795 6.92 c0.02 -0.06 0.06 -0.12 0.14 -0.12 l2.48 0 c0.08 0 0.12 0.06 0.14 0.12 l3.46 12.86 c0.02 0.12 -0.06 0.22 -0.18 0.22 l-2.28 0 c-0.06 0 -0.12 -0.04 -0.14 -0.12 l-0.78 -2.8 l-2.92 0 l-0.76 2.8 c-0.02 0.08 -0.06 0.12 -0.14 0.12 l-2.3 0 c-0.12 0 -0.2 -0.1 -0.18 -0.22 z M181.6395 14.6 l1.66 0 l-0.86 -3.02 z M180.2195 20.22 c0.16 -0.04 0.26 -0.14 0.28 -0.26 l0.68 0.64 l-0.06 0.16 c-0.02 0.06 -0.08 0.12 -0.14 0.12 l-0.1 0 z M188.1195 20.82 c-0.02 0.04 -0.08 0.06 -0.12 0.06 l-0.4 0 l-0.62 -0.62 l0.14 0 c0.12 0 0.22 -0.06 0.3 -0.14 z M180.6195 19.5 l0.12 -0.44 l0.66 0.66 l-0.12 0.44 z M180.8395 18.6 l0.14 -0.42 l0.64 0.64 l-0.1 0.46 z M181.1995 17.32 l0.1 0 l0.58 0.6 l-0.14 0.46 l-0.64 -0.66 z M185.8395 20.26 l0.58 0 l0.62 0.62 l-0.56 0 z M182.4195 17.96 l-0.6 -0.64 l0.56 0 l0.62 0.64 l-0.58 0 z M179.1195 20.26 l0.58 0 l0.6 0.62 l-0.56 0 z M179.1795 20.88 l-0.48 0 c-0.02 0 -0.08 -0.02 -0.1 -0.06 l-0.6 -0.56 l0.58 0 z M183.8995 17.96 l-0.36 0 l-0.6 -0.64 l0.56 0 l0.32 0.34 z M185.9995 12.52 l-0.52 -0.5 l-0.2 -0.76 l0.52 0.5 z M187.2195 17.12 l-0.52 -0.52 l-0.2 -0.74 l0.52 0.5 z M187.6195 18.66 l-0.5 -0.5 l-0.2 -0.78 l0.5 0.5 z M186.8195 15.6 l-0.52 -0.52 l-0.2 -0.78 l0.5 0.52 z M184.4395 8.18 l0.54 0.52 l0.2 0.78 l-0.5 -0.52 z M188.0395 20.18 l-0.52 -0.5 l-0.2 -0.78 l0.5 0.52 z M186.3995 14.059999999999999 l-0.5 -0.5 l-0.22 -0.78 l0.52 0.52 z M185.5795 11 l-0.5 -0.52 l-0.2 -0.76 l0.5 0.5 z M182.0195 14.18 l0.12 -0.46 l0.64 0.64 l-0.58 0 z M182.6195 13.08 l0.22 0.78 l-0.56 -0.58 l0.1 -0.42 z M185.0395 20.26 l0.26 0 l0.62 0.62 l-0.2 0 c-0.04 0 -0.1 -0.02 -0.12 -0.06 z M184.2395 7.42 l-0.04 -0.2 l0.44 0.46 c0.04 0.02 0.08 0.08 0.08 0.12 l0.06 0.12 z M198.181 6.98 c0 -0.1 0.08 -0.18 0.18 -0.18 l2.3 0 c0.1 0 0.18 0.08 0.18 0.18 l0 12.84 c0 0.1 -0.08 0.18 -0.18 0.18 l-2.22 0 c-0.08 0 -0.16 -0.04 -0.18 -0.1 l-2.92 -6.58 l0 6.5 c0 0.1 -0.08 0.18 -0.18 0.18 l-2.28 0 c-0.1 0 -0.16 -0.08 -0.16 -0.18 l0 -12.84 c0 -0.1 0.06 -0.18 0.16 -0.18 l2.36 0 c0.08 0 0.12 0.06 0.14 0.1 l2.8 6.46 l0 -6.38 z M201.721 8.22 l0 0.56 l-0.64 -0.6 l0 -0.58 z M201.721 9.36 l0 0.54 l-0.64 -0.6 l0 -0.58 z M201.721 10.48 l0 0.54 l-0.64 -0.6 l0 -0.56 z M201.721 11.6 l0 0.56 l-0.64 -0.6 l0 -0.58 z M201.721 12.719999999999999 l0 0.56 l-0.64 -0.62 l0 -0.56 z M196.221 7.699999999999999 l0.1 0.18 l-0.4 -0.38 l-0.06 -0.14 z M201.721 13.82 l0 0.58 l-0.64 -0.62 l0 -0.56 z M196.741 8.88 l0.42 0.98 l-0.38 -0.38 l-0.44 -1 z M197.941 11.66 l0 0.1 l-0.3 -0.3 l-0.42 -0.98 l0.36 0.38 z M201.721 14.96 l0 0.56 l-0.64 -0.62 l0 -0.54 z M201.721 16.08 l0 0.58 l-0.64 -0.64 l0 -0.54 z M201.721 17.2 l0 0.58 l-0.64 -0.62 l0 -0.56 z M201.721 18.32 l0 0.58 l-0.64 -0.62 l0 -0.58 z M201.721 19.46 l0 0.56 l-0.64 -0.62 l0 -0.58 z M195.58100000000002 15.02 l0 -0.52 l0.44 0.92 z M201.541 20.88 l-0.1 0 l-0.66 -0.66 c0.16 -0.04 0.26 -0.14 0.28 -0.26 l0.66 0.62 l0 0.12 c0 0.1 -0.08 0.18 -0.18 0.18 z M196.221 16.2 l0 0.56 l-0.64 -0.64 l0 -0.54 z M200.321 20.88 l-0.64 -0.62 l0.58 0 l0.62 0.62 l-0.56 0 z M196.221 17.32 l0 0.56 l-0.64 -0.6 l0 -0.58 z M199.161 20.82 l-0.54 -0.56 l0.52 0 l0.62 0.62 l-0.48 0 c-0.04 0 -0.06 0 -0.12 -0.06 z M196.221 18.46 l0 0.54 l-0.64 -0.62 l0 -0.56 z M196.221 19.56 l0 0.56 l-0.64 -0.62 l0 -0.54 z M195.221 20.26 c0.14 -0.04 0.26 -0.1 0.32 -0.24 l0.68 0.66 l0 0.02 c0 0.1 -0.08 0.18 -0.18 0.18 l-0.2 0 z M194.64100000000002 20.26 l0.62 0.62 l-0.54 0 l-0.64 -0.62 l0.56 0 z M193.061 20.26 l0.48 0 l0.6 0.62 l-0.4 0 c-0.06 0 -0.08 -0.02 -0.1 -0.06 c-0.06 -0.04 -0.32 -0.32 -0.58 -0.56 z"></path></g>
			</g>
		</svg>
	